<svg width="25" height="24" viewBox="0 0 25 24" fill="none" xmlns="http://www.w3.org/2000/svg">
                    <path fill-rule="evenodd" clip-rule="evenodd" d="M22.4888 11.5676C22.4888 17.4039 17.7575 22.1352 11.9212 22.1352C6.08483 22.1352 1.35355 17.4039 1.35355 11.5676C1.35355 5.73128 6.08483 1 11.9212 1C17.7575 1 22.4888 5.73128 22.4888 11.5676ZM19.7395 20.0931C17.6807 21.9822 14.9356 23.1352 11.9212 23.1352C5.53254 23.1352 0.353546 17.9562 0.353546 11.5676C0.353546 5.179 5.53254 0 11.9212 0C18.3098 0 23.4888 5.179 23.4888 11.5676C23.4888 14.582 22.3357 17.3272 20.4467 19.386L24.3536 23.2929L23.6464 24L19.7395 20.0931Z" fill="white"/>
                </svg>